# xmcd CD database file
#
# Track frame offsets:
#	150
#	14099
#	26490
#	41802
#	54199
#	64429
#	80325
#	94009
#	106396
#	121036
#	134804
#	146844
#	156956
#	168432
#	177643
#	185788
#	201402
#	215115
#	227539
#	240614
#
# Disc length: 3454 seconds
#
# Revision: 0
# Processed by: cddbd v1.5.2PL0 Copyright (c) Steve Scherf et al.
# Submitted via: jetAudio 7
#
DISCID=2f0d7c14
DTITLE=John Bee - Collection 1981-2004
DYEAR=1900
DGENRE=Unknown Genre
TTITLE0=Making Believe
TTITLE1=Down The Road I Go
TTITLE2=Off On Wednesday
TTITLE3=Crazy Arms
TTITLE4=Drinkin´ Dancin´
TTITLE5=If This Is Just A Game
TTITLE6=Don´t Keep The Candle Burning
TTITLE7=Tear Joint
TTITLE8=I´m The Only Hell (Mama Ever Raised)
TTITLE9=No Room To Cry
TTITLE10=Treat Me Nice
TTITLE11=Dreamin´
TTITLE12=Can´t Help Falling In Love
TTITLE13=Blue Moon Of Kentucky
TTITLE14=Lonely Over You
TTITLE15=Luckenbach Texas
TTITLE16=Take your smile from your face
TTITLE17=14 Carat Mind
TTITLE18=Blue Christmas
TTITLE19=Today I Started Loving You Again
EXTD=
EXTT0=
EXTT1=
EXTT2=
EXTT3=
EXTT4=
EXTT5=
EXTT6=
EXTT7=
EXTT8=
EXTT9=
EXTT10=
EXTT11=
EXTT12=
EXTT13=
EXTT14=
EXTT15=
EXTT16=
EXTT17=
EXTT18=
EXTT19=
PLAYORDER=
